<?xml version="1.0" standalone="no"?>
<!DOCTYPE svg PUBLIC "-//W3C//DTD SVG 20010904//EN"
 "http://www.w3.org/TR/2001/REC-SVG-20010904/DTD/svg10.dtd">
<svg version="1.0" xmlns="http://www.w3.org/2000/svg"
 width="6120.000000pt" height="6120.000000pt" viewBox="0 0 6120.000000 6120.000000"
 preserveAspectRatio="xMidYMid meet">

<g transform="translate(0.000000,6120.000000) scale(0.100000,-0.100000)"
fill="#b3976e" stroke="none">
<path d="M29935 61190 c-2186 -45 -4411 -332 -6540 -846 -2926 -706 -5754
-1855 -8356 -3394 -3755 -2223 -7007 -5234 -9514 -8810 -226 -322 -652 -966
-867 -1310 -1190 -1900 -2192 -3973 -2910 -6020 -49 -140 -97 -277 -107 -305
-11 -27 -71 -210 -134 -405 -785 -2416 -1263 -4880 -1432 -7395 -53 -785 -68
-1265 -68 -2115 1 -1780 131 -3357 418 -5080 657 -3933 2087 -7705 4205
-11096 2337 -3740 5448 -6931 9130 -9363 5553 -3668 12107 -5406 18800 -4985
3056 192 6063 842 8921 1929 4571 1739 8697 4583 11958 8245 2329 2615 4168
5555 5488 8775 1333 3252 2089 6716 2243 10280 57 1313 21 2777 -100 4110
-369 4045 -1529 7943 -3427 11520 -2643 4978 -6624 9149 -11478 12022 -3699
2189 -7802 3567 -12070 4052 -1374 157 -2744 219 -4160 191z m-11967 -12640
c254 -32 528 -171 700 -355 83 -88 156 -193 203 -290 22 -44 1353 -3689 2958
-8100 l2919 -8020 5850 -3 5851 -2 19 52 c11 29 1323 3635 2916 8013 1593
4378 2919 8005 2945 8060 155 323 455 551 836 636 38 9 121 13 225 13 185 -1
278 -20 446 -88 248 -101 469 -307 591 -551 25 -49 121 -297 213 -550 570
-1563 5645 -15508 5657 -15542 l15 -42 2566 -4 c2311 -3 2575 -5 2644 -19 258
-54 476 -173 646 -352 373 -394 426 -994 128 -1450 -141 -217 -365 -388 -614
-470 -191 -64 -32 -59 -2373 -65 l-2135 -6 1344 -3690 c739 -2029 1356 -3741
1372 -3802 118 -458 -53 -940 -435 -1225 -206 -154 -438 -232 -695 -232 -154
0 -264 19 -398 65 -281 99 -523 312 -653 574 -23 46 -715 1934 -1539 4197
l-1497 4113 -5290 3 c-5032 2 -5291 1 -5298 -15 -3 -10 -1421 -3906 -3151
-8658 -1755 -4821 -3166 -8684 -3193 -8740 -157 -327 -468 -563 -836 -636 -96
-19 -513 -19 -610 0 -372 74 -679 309 -839 642 -31 64 -5409 14813 -6338
17382 l-10 27 -5291 -2 -5290 -3 -969 -2660 c-532 -1463 -1204 -3310 -1494
-4105 -289 -795 -545 -1486 -569 -1537 -56 -115 -141 -228 -249 -330 -133
-126 -270 -208 -441 -262 -132 -42 -223 -55 -375 -54 -194 1 -351 39 -523 127
-483 247 -730 791 -601 1325 9 39 625 1741 1368 3783 l1352 3713 -2136 6
c-2340 6 -2181 1 -2372 65 -190 62 -355 169 -495 318 -136 147 -223 309 -280
524 -23 87 -26 115 -26 272 0 157 3 185 26 272 57 216 144 377 282 526 173
186 389 305 653 360 69 14 333 16 2643 19 l2566 4 2918 8017 c1604 4409 2932
8050 2951 8090 92 201 286 409 484 520 115 64 284 122 417 141 84 12 216 13
311 1z"/>
<path d="M15602 37867 c-1217 -3344 -2211 -6082 -2209 -6084 2 -1 1995 -2
4429 -1 l4426 3 -2212 6077 c-1217 3343 -2214 6079 -2217 6082 -2 2 -1000
-2732 -2217 -6077z"/>
<path d="M41163 37862 l-2211 -6077 4426 -3 c2434 -1 4427 -1 4429 1 5 5
-4420 12157 -4426 12157 -3 0 -1001 -2735 -2218 -6078z"/>
<path d="M25612 29411 c2 -5 1124 -3087 2493 -6850 1370 -3762 2492 -6841
2495 -6841 3 0 1126 3079 2495 6842 1370 3762 2492 6845 2493 6849 2 5 -2195
9 -4988 9 -2933 0 -4990 -4 -4988 -9z"/>
</g>
</svg>
