<svg id="visual" viewBox="0 0 600 900" width="600" height="900" xmlns="http://www.w3.org/2000/svg" xmlns:xlink="http://www.w3.org/1999/xlink" version="1.1"><path d="M0 46L26 46L26 73L52 73L52 55L78 55L78 46L104 46L104 46L130 46L130 19L157 19L157 28L183 28L183 28L209 28L209 55L235 55L235 64L261 64L261 10L287 10L287 28L313 28L313 37L339 37L339 46L365 46L365 73L391 73L391 46L417 46L417 10L443 10L443 19L470 19L470 19L496 19L496 10L522 10L522 55L548 55L548 19L574 19L574 64L600 64L600 19L600 0L600 0L574 0L574 0L548 0L548 0L522 0L522 0L496 0L496 0L470 0L470 0L443 0L443 0L417 0L417 0L391 0L391 0L365 0L365 0L339 0L339 0L313 0L313 0L287 0L287 0L261 0L261 0L235 0L235 0L209 0L209 0L183 0L183 0L157 0L157 0L130 0L130 0L104 0L104 0L78 0L78 0L52 0L52 0L26 0L26 0L0 0Z" fill="#79bc95"></path><path d="M0 190L26 190L26 190L52 190L52 118L78 118L78 181L104 181L104 262L130 262L130 154L157 154L157 154L183 154L183 181L209 181L209 190L235 190L235 145L261 145L261 253L287 253L287 235L313 235L313 163L339 163L339 217L365 217L365 325L391 325L391 253L417 253L417 235L443 235L443 217L470 217L470 118L496 118L496 307L522 307L522 226L548 226L548 289L574 289L574 199L600 199L600 334L600 17L600 62L574 62L574 17L548 17L548 53L522 53L522 8L496 8L496 17L470 17L470 17L443 17L443 8L417 8L417 44L391 44L391 71L365 71L365 44L339 44L339 35L313 35L313 26L287 26L287 8L261 8L261 62L235 62L235 53L209 53L209 26L183 26L183 26L157 26L157 17L130 17L130 44L104 44L104 44L78 44L78 53L52 53L52 71L26 71L26 44L0 44Z" fill="#479d90"></path><path d="M0 244L26 244L26 235L52 235L52 136L78 136L78 208L104 208L104 307L130 307L130 181L157 181L157 190L183 190L183 208L209 208L209 235L235 235L235 181L261 181L261 289L287 289L287 262L313 262L313 172L339 172L339 271L365 271L365 379L391 379L391 280L417 280L417 253L443 253L443 253L470 253L470 163L496 163L496 352L522 352L522 271L548 271L548 307L574 307L574 208L600 208L600 361L600 332L600 197L574 197L574 287L548 287L548 224L522 224L522 305L496 305L496 116L470 116L470 215L443 215L443 233L417 233L417 251L391 251L391 323L365 323L365 215L339 215L339 161L313 161L313 233L287 233L287 251L261 251L261 143L235 143L235 188L209 188L209 179L183 179L183 152L157 152L157 152L130 152L130 260L104 260L104 179L78 179L78 116L52 116L52 188L26 188L26 188L0 188Z" fill="#227d84"></path><path d="M0 289L26 289L26 298L52 298L52 199L78 199L78 244L104 244L104 334L130 334L130 253L157 253L157 280L183 280L183 235L209 235L209 262L235 262L235 262L261 262L261 325L287 325L287 316L313 316L313 235L339 235L339 316L365 316L365 415L391 415L391 361L417 361L417 271L443 271L443 271L470 271L470 235L496 235L496 451L522 451L522 343L548 343L548 334L574 334L574 235L600 235L600 433L600 359L600 206L574 206L574 305L548 305L548 269L522 269L522 350L496 350L496 161L470 161L470 251L443 251L443 251L417 251L417 278L391 278L391 377L365 377L365 269L339 269L339 170L313 170L313 260L287 260L287 287L261 287L261 179L235 179L235 233L209 233L209 206L183 206L183 188L157 188L157 179L130 179L130 305L104 305L104 206L78 206L78 134L52 134L52 233L26 233L26 242L0 242Z" fill="#145c71"></path><path d="M0 316L26 316L26 334L52 334L52 235L78 235L78 280L104 280L104 361L130 361L130 280L157 280L157 316L183 316L183 271L209 271L209 298L235 298L235 343L261 343L261 442L287 442L287 388L313 388L313 271L339 271L339 397L365 397L365 433L391 433L391 397L417 397L417 316L443 316L443 325L470 325L470 316L496 316L496 496L522 496L522 397L548 397L548 388L574 388L574 325L600 325L600 541L600 431L600 233L574 233L574 332L548 332L548 341L522 341L522 449L496 449L496 233L470 233L470 269L443 269L443 269L417 269L417 359L391 359L391 413L365 413L365 314L339 314L339 233L313 233L313 314L287 314L287 323L261 323L261 260L235 260L235 260L209 260L209 233L183 233L183 278L157 278L157 251L130 251L130 332L104 332L104 242L78 242L78 197L52 197L52 296L26 296L26 287L0 287Z" fill="#183d55"></path><path d="M0 361L26 361L26 352L52 352L52 316L78 316L78 334L104 334L104 388L130 388L130 289L157 289L157 397L183 397L183 280L209 280L209 379L235 379L235 388L261 388L261 523L287 523L287 397L313 397L313 343L339 343L339 424L365 424L365 478L391 478L391 451L417 451L417 361L443 361L443 352L470 352L470 343L496 343L496 514L522 514L522 460L548 460L548 433L574 433L574 370L600 370L600 568L600 539L600 323L574 323L574 386L548 386L548 395L522 395L522 494L496 494L496 314L470 314L470 323L443 323L443 314L417 314L417 395L391 395L391 431L365 431L365 395L339 395L339 269L313 269L313 386L287 386L287 440L261 440L261 341L235 341L235 296L209 296L209 269L183 269L183 314L157 314L157 278L130 278L130 359L104 359L104 278L78 278L78 233L52 233L52 332L26 332L26 314L0 314Z" fill="#193149"></path><path d="M0 595L26 595L26 676L52 676L52 523L78 523L78 505L104 505L104 559L130 559L130 469L157 469L157 505L183 505L183 496L209 496L209 622L235 622L235 559L261 559L261 721L287 721L287 523L313 523L313 532L339 532L339 613L365 613L365 586L391 586L391 559L417 559L417 469L443 469L443 523L470 523L470 604L496 604L496 622L522 622L522 658L548 658L548 541L574 541L574 523L600 523L600 622L600 566L600 368L574 368L574 431L548 431L548 458L522 458L522 512L496 512L496 341L470 341L470 350L443 350L443 359L417 359L417 449L391 449L391 476L365 476L365 422L339 422L339 341L313 341L313 395L287 395L287 521L261 521L261 386L235 386L235 377L209 377L209 278L183 278L183 395L157 395L157 287L130 287L130 386L104 386L104 332L78 332L78 314L52 314L52 350L26 350L26 359L0 359Z" fill="#193149"></path><path d="M0 703L26 703L26 721L52 721L52 586L78 586L78 613L104 613L104 685L130 685L130 541L157 541L157 631L183 631L183 568L209 568L209 730L235 730L235 676L261 676L261 748L287 748L287 577L313 577L313 577L339 577L339 721L365 721L365 694L391 694L391 676L417 676L417 613L443 613L443 604L470 604L470 703L496 703L496 757L522 757L522 757L548 757L548 595L574 595L574 631L600 631L600 739L600 620L600 521L574 521L574 539L548 539L548 656L522 656L522 620L496 620L496 602L470 602L470 521L443 521L443 467L417 467L417 557L391 557L391 584L365 584L365 611L339 611L339 530L313 530L313 521L287 521L287 719L261 719L261 557L235 557L235 620L209 620L209 494L183 494L183 503L157 503L157 467L130 467L130 557L104 557L104 503L78 503L78 521L52 521L52 674L26 674L26 593L0 593Z" fill="#183d55"></path><path d="M0 730L26 730L26 766L52 766L52 649L78 649L78 649L104 649L104 748L130 748L130 604L157 604L157 676L183 676L183 631L209 631L209 748L235 748L235 739L261 739L261 811L287 811L287 631L313 631L313 613L339 613L339 748L365 748L365 712L391 712L391 721L417 721L417 649L443 649L443 649L470 649L470 739L496 739L496 784L522 784L522 793L548 793L548 658L574 658L574 658L600 658L600 775L600 737L600 629L574 629L574 593L548 593L548 755L522 755L522 755L496 755L496 701L470 701L470 602L443 602L443 611L417 611L417 674L391 674L391 692L365 692L365 719L339 719L339 575L313 575L313 575L287 575L287 746L261 746L261 674L235 674L235 728L209 728L209 566L183 566L183 629L157 629L157 539L130 539L130 683L104 683L104 611L78 611L78 584L52 584L52 719L26 719L26 701L0 701Z" fill="#145c71"></path><path d="M0 811L26 811L26 829L52 829L52 829L78 829L78 784L104 784L104 793L130 793L130 757L157 757L157 829L183 829L183 820L209 820L209 802L235 802L235 838L261 838L261 865L287 865L287 748L313 748L313 802L339 802L339 820L365 820L365 811L391 811L391 838L417 838L417 802L443 802L443 811L470 811L470 856L496 856L496 838L522 838L522 883L548 883L548 820L574 820L574 820L600 820L600 811L600 773L600 656L574 656L574 656L548 656L548 791L522 791L522 782L496 782L496 737L470 737L470 647L443 647L443 647L417 647L417 719L391 719L391 710L365 710L365 746L339 746L339 611L313 611L313 629L287 629L287 809L261 809L261 737L235 737L235 746L209 746L209 629L183 629L183 674L157 674L157 602L130 602L130 746L104 746L104 647L78 647L78 647L52 647L52 764L26 764L26 728L0 728Z" fill="#227d84"></path><path d="M0 856L26 856L26 874L52 874L52 883L78 883L78 874L104 874L104 865L130 865L130 838L157 838L157 874L183 874L183 883L209 883L209 883L235 883L235 856L261 856L261 883L287 883L287 838L313 838L313 883L339 883L339 838L365 838L365 838L391 838L391 865L417 865L417 838L443 838L443 865L470 865L470 874L496 874L496 856L522 856L522 892L548 892L548 874L574 874L574 856L600 856L600 874L600 809L600 818L574 818L574 818L548 818L548 881L522 881L522 836L496 836L496 854L470 854L470 809L443 809L443 800L417 800L417 836L391 836L391 809L365 809L365 818L339 818L339 800L313 800L313 746L287 746L287 863L261 863L261 836L235 836L235 800L209 800L209 818L183 818L183 827L157 827L157 755L130 755L130 791L104 791L104 782L78 782L78 827L52 827L52 827L26 827L26 809L0 809Z" fill="#479d90"></path><path d="M0 901L26 901L26 901L52 901L52 901L78 901L78 901L104 901L104 901L130 901L130 901L157 901L157 901L183 901L183 901L209 901L209 901L235 901L235 901L261 901L261 901L287 901L287 901L313 901L313 901L339 901L339 901L365 901L365 901L391 901L391 901L417 901L417 901L443 901L443 901L470 901L470 901L496 901L496 901L522 901L522 901L548 901L548 901L574 901L574 901L600 901L600 901L600 872L600 854L574 854L574 872L548 872L548 890L522 890L522 854L496 854L496 872L470 872L470 863L443 863L443 836L417 836L417 863L391 863L391 836L365 836L365 836L339 836L339 881L313 881L313 836L287 836L287 881L261 881L261 854L235 854L235 881L209 881L209 881L183 881L183 872L157 872L157 836L130 836L130 863L104 863L104 872L78 872L78 881L52 881L52 872L26 872L26 854L0 854Z" fill="#79bc95"></path></svg>