<svg id="visual" viewBox="0 0 960 540" width="960" height="540" xmlns="http://www.w3.org/2000/svg" xmlns:xlink="http://www.w3.org/1999/xlink" version="1.1"><path d="M0 28L42 28L42 44L83 44L83 33L125 33L125 28L167 28L167 28L209 28L209 12L250 12L250 17L292 17L292 17L334 17L334 33L376 33L376 39L417 39L417 6L459 6L459 17L501 17L501 23L543 23L543 28L584 28L584 44L626 44L626 28L668 28L668 6L710 6L710 12L751 12L751 12L793 12L793 6L835 6L835 33L877 33L877 12L918 12L918 39L960 39L960 12L960 0L960 0L918 0L918 0L877 0L877 0L835 0L835 0L793 0L793 0L751 0L751 0L710 0L710 0L668 0L668 0L626 0L626 0L584 0L584 0L543 0L543 0L501 0L501 0L459 0L459 0L417 0L417 0L376 0L376 0L334 0L334 0L292 0L292 0L250 0L250 0L209 0L209 0L167 0L167 0L125 0L125 0L83 0L83 0L42 0L42 0L0 0Z" fill="#79bc95"></path><path d="M0 114L42 114L42 114L83 114L83 71L125 71L125 109L167 109L167 158L209 158L209 93L250 93L250 93L292 93L292 109L334 109L334 114L376 114L376 87L417 87L417 152L459 152L459 141L501 141L501 98L543 98L543 131L584 131L584 195L626 195L626 152L668 152L668 141L710 141L710 131L751 131L751 71L793 71L793 185L835 185L835 136L877 136L877 174L918 174L918 120L960 120L960 201L960 10L960 37L918 37L918 10L877 10L877 31L835 31L835 4L793 4L793 10L751 10L751 10L710 10L710 4L668 4L668 26L626 26L626 42L584 42L584 26L543 26L543 21L501 21L501 15L459 15L459 4L417 4L417 37L376 37L376 31L334 31L334 15L292 15L292 15L250 15L250 10L209 10L209 26L167 26L167 26L125 26L125 31L83 31L83 42L42 42L42 26L0 26Z" fill="#479d90"></path><path d="M0 147L42 147L42 141L83 141L83 82L125 82L125 125L167 125L167 185L209 185L209 109L250 109L250 114L292 114L292 125L334 125L334 141L376 141L376 109L417 109L417 174L459 174L459 158L501 158L501 104L543 104L543 163L584 163L584 228L626 228L626 168L668 168L668 152L710 152L710 152L751 152L751 98L793 98L793 212L835 212L835 163L877 163L877 185L918 185L918 125L960 125L960 217L960 199L960 118L918 118L918 172L877 172L877 134L835 134L835 183L793 183L793 69L751 69L751 129L710 129L710 139L668 139L668 150L626 150L626 193L584 193L584 129L543 129L543 96L501 96L501 139L459 139L459 150L417 150L417 85L376 85L376 112L334 112L334 107L292 107L292 91L250 91L250 91L209 91L209 156L167 156L167 107L125 107L125 69L83 69L83 112L42 112L42 112L0 112Z" fill="#227d84"></path><path d="M0 174L42 174L42 179L83 179L83 120L125 120L125 147L167 147L167 201L209 201L209 152L250 152L250 168L292 168L292 141L334 141L334 158L376 158L376 158L417 158L417 195L459 195L459 190L501 190L501 141L543 141L543 190L584 190L584 249L626 249L626 217L668 217L668 163L710 163L710 163L751 163L751 141L793 141L793 271L835 271L835 206L877 206L877 201L918 201L918 141L960 141L960 260L960 215L960 123L918 123L918 183L877 183L877 161L835 161L835 210L793 210L793 96L751 96L751 150L710 150L710 150L668 150L668 166L626 166L626 226L584 226L584 161L543 161L543 102L501 102L501 156L459 156L459 172L417 172L417 107L376 107L376 139L334 139L334 123L292 123L292 112L250 112L250 107L209 107L209 183L167 183L167 123L125 123L125 80L83 80L83 139L42 139L42 145L0 145Z" fill="#145c71"></path><path d="M0 190L42 190L42 201L83 201L83 141L125 141L125 168L167 168L167 217L209 217L209 168L250 168L250 190L292 190L292 163L334 163L334 179L376 179L376 206L417 206L417 266L459 266L459 233L501 233L501 163L543 163L543 239L584 239L584 260L626 260L626 239L668 239L668 190L710 190L710 195L751 195L751 190L793 190L793 298L835 298L835 239L877 239L877 233L918 233L918 195L960 195L960 325L960 258L960 139L918 139L918 199L877 199L877 204L835 204L835 269L793 269L793 139L751 139L751 161L710 161L710 161L668 161L668 215L626 215L626 247L584 247L584 188L543 188L543 139L501 139L501 188L459 188L459 193L417 193L417 156L376 156L376 156L334 156L334 139L292 139L292 166L250 166L250 150L209 150L209 199L167 199L167 145L125 145L125 118L83 118L83 177L42 177L42 172L0 172Z" fill="#183d55"></path><path d="M0 217L42 217L42 212L83 212L83 190L125 190L125 201L167 201L167 233L209 233L209 174L250 174L250 239L292 239L292 168L334 168L334 228L376 228L376 233L417 233L417 314L459 314L459 239L501 239L501 206L543 206L543 255L584 255L584 287L626 287L626 271L668 271L668 217L710 217L710 212L751 212L751 206L793 206L793 309L835 309L835 276L877 276L877 260L918 260L918 222L960 222L960 341L960 323L960 193L918 193L918 231L877 231L877 237L835 237L835 296L793 296L793 188L751 188L751 193L710 193L710 188L668 188L668 237L626 237L626 258L584 258L584 237L543 237L543 161L501 161L501 231L459 231L459 264L417 264L417 204L376 204L376 177L334 177L334 161L292 161L292 188L250 188L250 166L209 166L209 215L167 215L167 166L125 166L125 139L83 139L83 199L42 199L42 188L0 188Z" fill="#193149"></path><path d="M0 357L42 357L42 406L83 406L83 314L125 314L125 303L167 303L167 336L209 336L209 282L250 282L250 303L292 303L292 298L334 298L334 374L376 374L376 336L417 336L417 433L459 433L459 314L501 314L501 320L543 320L543 368L584 368L584 352L626 352L626 336L668 336L668 282L710 282L710 314L751 314L751 363L793 363L793 374L835 374L835 395L877 395L877 325L918 325L918 314L960 314L960 374L960 339L960 220L918 220L918 258L877 258L877 274L835 274L835 307L793 307L793 204L751 204L751 210L710 210L710 215L668 215L668 269L626 269L626 285L584 285L584 253L543 253L543 204L501 204L501 237L459 237L459 312L417 312L417 231L376 231L376 226L334 226L334 166L292 166L292 237L250 237L250 172L209 172L209 231L167 231L167 199L125 199L125 188L83 188L83 210L42 210L42 215L0 215Z" fill="#193149"></path><path d="M0 422L42 422L42 433L83 433L83 352L125 352L125 368L167 368L167 411L209 411L209 325L250 325L250 379L292 379L292 341L334 341L334 438L376 438L376 406L417 406L417 449L459 449L459 347L501 347L501 347L543 347L543 433L584 433L584 417L626 417L626 406L668 406L668 368L710 368L710 363L751 363L751 422L793 422L793 455L835 455L835 455L877 455L877 357L918 357L918 379L960 379L960 444L960 372L960 312L918 312L918 323L877 323L877 393L835 393L835 372L793 372L793 361L751 361L751 312L710 312L710 280L668 280L668 334L626 334L626 350L584 350L584 366L543 366L543 318L501 318L501 312L459 312L459 431L417 431L417 334L376 334L376 372L334 372L334 296L292 296L292 301L250 301L250 280L209 280L209 334L167 334L167 301L125 301L125 312L83 312L83 404L42 404L42 355L0 355Z" fill="#183d55"></path><path d="M0 438L42 438L42 460L83 460L83 390L125 390L125 390L167 390L167 449L209 449L209 363L250 363L250 406L292 406L292 379L334 379L334 449L376 449L376 444L417 444L417 487L459 487L459 379L501 379L501 368L543 368L543 449L584 449L584 428L626 428L626 433L668 433L668 390L710 390L710 390L751 390L751 444L793 444L793 471L835 471L835 476L877 476L877 395L918 395L918 395L960 395L960 465L960 442L960 377L918 377L918 355L877 355L877 453L835 453L835 453L793 453L793 420L751 420L751 361L710 361L710 366L668 366L668 404L626 404L626 415L584 415L584 431L543 431L543 345L501 345L501 345L459 345L459 447L417 447L417 404L376 404L376 436L334 436L334 339L292 339L292 377L250 377L250 323L209 323L209 409L167 409L167 366L125 366L125 350L83 350L83 431L42 431L42 420L0 420Z" fill="#145c71"></path><path d="M0 487L42 487L42 498L83 498L83 498L125 498L125 471L167 471L167 476L209 476L209 455L250 455L250 498L292 498L292 492L334 492L334 482L376 482L376 503L417 503L417 519L459 519L459 449L501 449L501 482L543 482L543 492L584 492L584 487L626 487L626 503L668 503L668 482L710 482L710 487L751 487L751 514L793 514L793 503L835 503L835 530L877 530L877 492L918 492L918 492L960 492L960 487L960 463L960 393L918 393L918 393L877 393L877 474L835 474L835 469L793 469L793 442L751 442L751 388L710 388L710 388L668 388L668 431L626 431L626 426L584 426L584 447L543 447L543 366L501 366L501 377L459 377L459 485L417 485L417 442L376 442L376 447L334 447L334 377L292 377L292 404L250 404L250 361L209 361L209 447L167 447L167 388L125 388L125 388L83 388L83 458L42 458L42 436L0 436Z" fill="#227d84"></path><path d="M0 514L42 514L42 525L83 525L83 530L125 530L125 525L167 525L167 519L209 519L209 503L250 503L250 525L292 525L292 530L334 530L334 530L376 530L376 514L417 514L417 530L459 530L459 503L501 503L501 530L543 530L543 503L584 503L584 503L626 503L626 519L668 519L668 503L710 503L710 519L751 519L751 525L793 525L793 514L835 514L835 536L877 536L877 525L918 525L918 514L960 514L960 525L960 485L960 490L918 490L918 490L877 490L877 528L835 528L835 501L793 501L793 512L751 512L751 485L710 485L710 480L668 480L668 501L626 501L626 485L584 485L584 490L543 490L543 480L501 480L501 447L459 447L459 517L417 517L417 501L376 501L376 480L334 480L334 490L292 490L292 496L250 496L250 453L209 453L209 474L167 474L167 469L125 469L125 496L83 496L83 496L42 496L42 485L0 485Z" fill="#479d90"></path><path d="M0 541L42 541L42 541L83 541L83 541L125 541L125 541L167 541L167 541L209 541L209 541L250 541L250 541L292 541L292 541L334 541L334 541L376 541L376 541L417 541L417 541L459 541L459 541L501 541L501 541L543 541L543 541L584 541L584 541L626 541L626 541L668 541L668 541L710 541L710 541L751 541L751 541L793 541L793 541L835 541L835 541L877 541L877 541L918 541L918 541L960 541L960 541L960 523L960 512L918 512L918 523L877 523L877 534L835 534L835 512L793 512L793 523L751 523L751 517L710 517L710 501L668 501L668 517L626 517L626 501L584 501L584 501L543 501L543 528L501 528L501 501L459 501L459 528L417 528L417 512L376 512L376 528L334 528L334 528L292 528L292 523L250 523L250 501L209 501L209 517L167 517L167 523L125 523L125 528L83 528L83 523L42 523L42 512L0 512Z" fill="#79bc95"></path></svg>