<svg id="visual" viewBox="0 0 450 900" width="450" height="900" xmlns="http://www.w3.org/2000/svg" xmlns:xlink="http://www.w3.org/1999/xlink" version="1.1"><path d="M0 46L20 46L20 73L39 73L39 55L59 55L59 46L78 46L78 46L98 46L98 19L117 19L117 28L137 28L137 28L157 28L157 55L176 55L176 64L196 64L196 10L215 10L215 28L235 28L235 37L254 37L254 46L274 46L274 73L293 73L293 46L313 46L313 10L333 10L333 19L352 19L352 19L372 19L372 10L391 10L391 55L411 55L411 19L430 19L430 64L450 64L450 19L450 0L450 0L430 0L430 0L411 0L411 0L391 0L391 0L372 0L372 0L352 0L352 0L333 0L333 0L313 0L313 0L293 0L293 0L274 0L274 0L254 0L254 0L235 0L235 0L215 0L215 0L196 0L196 0L176 0L176 0L157 0L157 0L137 0L137 0L117 0L117 0L98 0L98 0L78 0L78 0L59 0L59 0L39 0L39 0L20 0L20 0L0 0Z" fill="#79bc95"></path><path d="M0 190L20 190L20 190L39 190L39 118L59 118L59 181L78 181L78 262L98 262L98 154L117 154L117 154L137 154L137 181L157 181L157 190L176 190L176 145L196 145L196 253L215 253L215 235L235 235L235 163L254 163L254 217L274 217L274 325L293 325L293 253L313 253L313 235L333 235L333 217L352 217L352 118L372 118L372 307L391 307L391 226L411 226L411 289L430 289L430 199L450 199L450 334L450 17L450 62L430 62L430 17L411 17L411 53L391 53L391 8L372 8L372 17L352 17L352 17L333 17L333 8L313 8L313 44L293 44L293 71L274 71L274 44L254 44L254 35L235 35L235 26L215 26L215 8L196 8L196 62L176 62L176 53L157 53L157 26L137 26L137 26L117 26L117 17L98 17L98 44L78 44L78 44L59 44L59 53L39 53L39 71L20 71L20 44L0 44Z" fill="#479d90"></path><path d="M0 244L20 244L20 235L39 235L39 136L59 136L59 208L78 208L78 307L98 307L98 181L117 181L117 190L137 190L137 208L157 208L157 235L176 235L176 181L196 181L196 289L215 289L215 262L235 262L235 172L254 172L254 271L274 271L274 379L293 379L293 280L313 280L313 253L333 253L333 253L352 253L352 163L372 163L372 352L391 352L391 271L411 271L411 307L430 307L430 208L450 208L450 361L450 332L450 197L430 197L430 287L411 287L411 224L391 224L391 305L372 305L372 116L352 116L352 215L333 215L333 233L313 233L313 251L293 251L293 323L274 323L274 215L254 215L254 161L235 161L235 233L215 233L215 251L196 251L196 143L176 143L176 188L157 188L157 179L137 179L137 152L117 152L117 152L98 152L98 260L78 260L78 179L59 179L59 116L39 116L39 188L20 188L20 188L0 188Z" fill="#227d84"></path><path d="M0 289L20 289L20 298L39 298L39 199L59 199L59 244L78 244L78 334L98 334L98 253L117 253L117 280L137 280L137 235L157 235L157 262L176 262L176 262L196 262L196 325L215 325L215 316L235 316L235 235L254 235L254 316L274 316L274 415L293 415L293 361L313 361L313 271L333 271L333 271L352 271L352 235L372 235L372 451L391 451L391 343L411 343L411 334L430 334L430 235L450 235L450 433L450 359L450 206L430 206L430 305L411 305L411 269L391 269L391 350L372 350L372 161L352 161L352 251L333 251L333 251L313 251L313 278L293 278L293 377L274 377L274 269L254 269L254 170L235 170L235 260L215 260L215 287L196 287L196 179L176 179L176 233L157 233L157 206L137 206L137 188L117 188L117 179L98 179L98 305L78 305L78 206L59 206L59 134L39 134L39 233L20 233L20 242L0 242Z" fill="#145c71"></path><path d="M0 316L20 316L20 334L39 334L39 235L59 235L59 280L78 280L78 361L98 361L98 280L117 280L117 316L137 316L137 271L157 271L157 298L176 298L176 343L196 343L196 442L215 442L215 388L235 388L235 271L254 271L254 397L274 397L274 433L293 433L293 397L313 397L313 316L333 316L333 325L352 325L352 316L372 316L372 496L391 496L391 397L411 397L411 388L430 388L430 325L450 325L450 541L450 431L450 233L430 233L430 332L411 332L411 341L391 341L391 449L372 449L372 233L352 233L352 269L333 269L333 269L313 269L313 359L293 359L293 413L274 413L274 314L254 314L254 233L235 233L235 314L215 314L215 323L196 323L196 260L176 260L176 260L157 260L157 233L137 233L137 278L117 278L117 251L98 251L98 332L78 332L78 242L59 242L59 197L39 197L39 296L20 296L20 287L0 287Z" fill="#183d55"></path><path d="M0 361L20 361L20 352L39 352L39 316L59 316L59 334L78 334L78 388L98 388L98 289L117 289L117 397L137 397L137 280L157 280L157 379L176 379L176 388L196 388L196 523L215 523L215 397L235 397L235 343L254 343L254 424L274 424L274 478L293 478L293 451L313 451L313 361L333 361L333 352L352 352L352 343L372 343L372 514L391 514L391 460L411 460L411 433L430 433L430 370L450 370L450 568L450 539L450 323L430 323L430 386L411 386L411 395L391 395L391 494L372 494L372 314L352 314L352 323L333 323L333 314L313 314L313 395L293 395L293 431L274 431L274 395L254 395L254 269L235 269L235 386L215 386L215 440L196 440L196 341L176 341L176 296L157 296L157 269L137 269L137 314L117 314L117 278L98 278L98 359L78 359L78 278L59 278L59 233L39 233L39 332L20 332L20 314L0 314Z" fill="#193149"></path><path d="M0 595L20 595L20 676L39 676L39 523L59 523L59 505L78 505L78 559L98 559L98 469L117 469L117 505L137 505L137 496L157 496L157 622L176 622L176 559L196 559L196 721L215 721L215 523L235 523L235 532L254 532L254 613L274 613L274 586L293 586L293 559L313 559L313 469L333 469L333 523L352 523L352 604L372 604L372 622L391 622L391 658L411 658L411 541L430 541L430 523L450 523L450 622L450 566L450 368L430 368L430 431L411 431L411 458L391 458L391 512L372 512L372 341L352 341L352 350L333 350L333 359L313 359L313 449L293 449L293 476L274 476L274 422L254 422L254 341L235 341L235 395L215 395L215 521L196 521L196 386L176 386L176 377L157 377L157 278L137 278L137 395L117 395L117 287L98 287L98 386L78 386L78 332L59 332L59 314L39 314L39 350L20 350L20 359L0 359Z" fill="#193149"></path><path d="M0 703L20 703L20 721L39 721L39 586L59 586L59 613L78 613L78 685L98 685L98 541L117 541L117 631L137 631L137 568L157 568L157 730L176 730L176 676L196 676L196 748L215 748L215 577L235 577L235 577L254 577L254 721L274 721L274 694L293 694L293 676L313 676L313 613L333 613L333 604L352 604L352 703L372 703L372 757L391 757L391 757L411 757L411 595L430 595L430 631L450 631L450 739L450 620L450 521L430 521L430 539L411 539L411 656L391 656L391 620L372 620L372 602L352 602L352 521L333 521L333 467L313 467L313 557L293 557L293 584L274 584L274 611L254 611L254 530L235 530L235 521L215 521L215 719L196 719L196 557L176 557L176 620L157 620L157 494L137 494L137 503L117 503L117 467L98 467L98 557L78 557L78 503L59 503L59 521L39 521L39 674L20 674L20 593L0 593Z" fill="#183d55"></path><path d="M0 730L20 730L20 766L39 766L39 649L59 649L59 649L78 649L78 748L98 748L98 604L117 604L117 676L137 676L137 631L157 631L157 748L176 748L176 739L196 739L196 811L215 811L215 631L235 631L235 613L254 613L254 748L274 748L274 712L293 712L293 721L313 721L313 649L333 649L333 649L352 649L352 739L372 739L372 784L391 784L391 793L411 793L411 658L430 658L430 658L450 658L450 775L450 737L450 629L430 629L430 593L411 593L411 755L391 755L391 755L372 755L372 701L352 701L352 602L333 602L333 611L313 611L313 674L293 674L293 692L274 692L274 719L254 719L254 575L235 575L235 575L215 575L215 746L196 746L196 674L176 674L176 728L157 728L157 566L137 566L137 629L117 629L117 539L98 539L98 683L78 683L78 611L59 611L59 584L39 584L39 719L20 719L20 701L0 701Z" fill="#145c71"></path><path d="M0 811L20 811L20 829L39 829L39 829L59 829L59 784L78 784L78 793L98 793L98 757L117 757L117 829L137 829L137 820L157 820L157 802L176 802L176 838L196 838L196 865L215 865L215 748L235 748L235 802L254 802L254 820L274 820L274 811L293 811L293 838L313 838L313 802L333 802L333 811L352 811L352 856L372 856L372 838L391 838L391 883L411 883L411 820L430 820L430 820L450 820L450 811L450 773L450 656L430 656L430 656L411 656L411 791L391 791L391 782L372 782L372 737L352 737L352 647L333 647L333 647L313 647L313 719L293 719L293 710L274 710L274 746L254 746L254 611L235 611L235 629L215 629L215 809L196 809L196 737L176 737L176 746L157 746L157 629L137 629L137 674L117 674L117 602L98 602L98 746L78 746L78 647L59 647L59 647L39 647L39 764L20 764L20 728L0 728Z" fill="#227d84"></path><path d="M0 856L20 856L20 874L39 874L39 883L59 883L59 874L78 874L78 865L98 865L98 838L117 838L117 874L137 874L137 883L157 883L157 883L176 883L176 856L196 856L196 883L215 883L215 838L235 838L235 883L254 883L254 838L274 838L274 838L293 838L293 865L313 865L313 838L333 838L333 865L352 865L352 874L372 874L372 856L391 856L391 892L411 892L411 874L430 874L430 856L450 856L450 874L450 809L450 818L430 818L430 818L411 818L411 881L391 881L391 836L372 836L372 854L352 854L352 809L333 809L333 800L313 800L313 836L293 836L293 809L274 809L274 818L254 818L254 800L235 800L235 746L215 746L215 863L196 863L196 836L176 836L176 800L157 800L157 818L137 818L137 827L117 827L117 755L98 755L98 791L78 791L78 782L59 782L59 827L39 827L39 827L20 827L20 809L0 809Z" fill="#479d90"></path><path d="M0 901L20 901L20 901L39 901L39 901L59 901L59 901L78 901L78 901L98 901L98 901L117 901L117 901L137 901L137 901L157 901L157 901L176 901L176 901L196 901L196 901L215 901L215 901L235 901L235 901L254 901L254 901L274 901L274 901L293 901L293 901L313 901L313 901L333 901L333 901L352 901L352 901L372 901L372 901L391 901L391 901L411 901L411 901L430 901L430 901L450 901L450 901L450 872L450 854L430 854L430 872L411 872L411 890L391 890L391 854L372 854L372 872L352 872L352 863L333 863L333 836L313 836L313 863L293 863L293 836L274 836L274 836L254 836L254 881L235 881L235 836L215 836L215 881L196 881L196 854L176 854L176 881L157 881L157 881L137 881L137 872L117 872L117 836L98 836L98 863L78 863L78 872L59 872L59 881L39 881L39 872L20 872L20 854L0 854Z" fill="#79bc95"></path></svg>