<svg id="visual" viewBox="0 0 900 900" width="900" height="900" xmlns="http://www.w3.org/2000/svg" xmlns:xlink="http://www.w3.org/1999/xlink" version="1.1"><path d="M0 46L39 46L39 73L78 73L78 55L117 55L117 46L157 46L157 46L196 46L196 19L235 19L235 28L274 28L274 28L313 28L313 55L352 55L352 64L391 64L391 10L430 10L430 28L470 28L470 37L509 37L509 46L548 46L548 73L587 73L587 46L626 46L626 10L665 10L665 19L704 19L704 19L743 19L743 10L783 10L783 55L822 55L822 19L861 19L861 64L900 64L900 19L900 0L900 0L861 0L861 0L822 0L822 0L783 0L783 0L743 0L743 0L704 0L704 0L665 0L665 0L626 0L626 0L587 0L587 0L548 0L548 0L509 0L509 0L470 0L470 0L430 0L430 0L391 0L391 0L352 0L352 0L313 0L313 0L274 0L274 0L235 0L235 0L196 0L196 0L157 0L157 0L117 0L117 0L78 0L78 0L39 0L39 0L0 0Z" fill="#79bc95"></path><path d="M0 190L39 190L39 190L78 190L78 118L117 118L117 181L157 181L157 262L196 262L196 154L235 154L235 154L274 154L274 181L313 181L313 190L352 190L352 145L391 145L391 253L430 253L430 235L470 235L470 163L509 163L509 217L548 217L548 325L587 325L587 253L626 253L626 235L665 235L665 217L704 217L704 118L743 118L743 307L783 307L783 226L822 226L822 289L861 289L861 199L900 199L900 334L900 17L900 62L861 62L861 17L822 17L822 53L783 53L783 8L743 8L743 17L704 17L704 17L665 17L665 8L626 8L626 44L587 44L587 71L548 71L548 44L509 44L509 35L470 35L470 26L430 26L430 8L391 8L391 62L352 62L352 53L313 53L313 26L274 26L274 26L235 26L235 17L196 17L196 44L157 44L157 44L117 44L117 53L78 53L78 71L39 71L39 44L0 44Z" fill="#479d90"></path><path d="M0 244L39 244L39 235L78 235L78 136L117 136L117 208L157 208L157 307L196 307L196 181L235 181L235 190L274 190L274 208L313 208L313 235L352 235L352 181L391 181L391 289L430 289L430 262L470 262L470 172L509 172L509 271L548 271L548 379L587 379L587 280L626 280L626 253L665 253L665 253L704 253L704 163L743 163L743 352L783 352L783 271L822 271L822 307L861 307L861 208L900 208L900 361L900 332L900 197L861 197L861 287L822 287L822 224L783 224L783 305L743 305L743 116L704 116L704 215L665 215L665 233L626 233L626 251L587 251L587 323L548 323L548 215L509 215L509 161L470 161L470 233L430 233L430 251L391 251L391 143L352 143L352 188L313 188L313 179L274 179L274 152L235 152L235 152L196 152L196 260L157 260L157 179L117 179L117 116L78 116L78 188L39 188L39 188L0 188Z" fill="#227d84"></path><path d="M0 289L39 289L39 298L78 298L78 199L117 199L117 244L157 244L157 334L196 334L196 253L235 253L235 280L274 280L274 235L313 235L313 262L352 262L352 262L391 262L391 325L430 325L430 316L470 316L470 235L509 235L509 316L548 316L548 415L587 415L587 361L626 361L626 271L665 271L665 271L704 271L704 235L743 235L743 451L783 451L783 343L822 343L822 334L861 334L861 235L900 235L900 433L900 359L900 206L861 206L861 305L822 305L822 269L783 269L783 350L743 350L743 161L704 161L704 251L665 251L665 251L626 251L626 278L587 278L587 377L548 377L548 269L509 269L509 170L470 170L470 260L430 260L430 287L391 287L391 179L352 179L352 233L313 233L313 206L274 206L274 188L235 188L235 179L196 179L196 305L157 305L157 206L117 206L117 134L78 134L78 233L39 233L39 242L0 242Z" fill="#145c71"></path><path d="M0 316L39 316L39 334L78 334L78 235L117 235L117 280L157 280L157 361L196 361L196 280L235 280L235 316L274 316L274 271L313 271L313 298L352 298L352 343L391 343L391 442L430 442L430 388L470 388L470 271L509 271L509 397L548 397L548 433L587 433L587 397L626 397L626 316L665 316L665 325L704 325L704 316L743 316L743 496L783 496L783 397L822 397L822 388L861 388L861 325L900 325L900 541L900 431L900 233L861 233L861 332L822 332L822 341L783 341L783 449L743 449L743 233L704 233L704 269L665 269L665 269L626 269L626 359L587 359L587 413L548 413L548 314L509 314L509 233L470 233L470 314L430 314L430 323L391 323L391 260L352 260L352 260L313 260L313 233L274 233L274 278L235 278L235 251L196 251L196 332L157 332L157 242L117 242L117 197L78 197L78 296L39 296L39 287L0 287Z" fill="#183d55"></path><path d="M0 361L39 361L39 352L78 352L78 316L117 316L117 334L157 334L157 388L196 388L196 289L235 289L235 397L274 397L274 280L313 280L313 379L352 379L352 388L391 388L391 523L430 523L430 397L470 397L470 343L509 343L509 424L548 424L548 478L587 478L587 451L626 451L626 361L665 361L665 352L704 352L704 343L743 343L743 514L783 514L783 460L822 460L822 433L861 433L861 370L900 370L900 568L900 539L900 323L861 323L861 386L822 386L822 395L783 395L783 494L743 494L743 314L704 314L704 323L665 323L665 314L626 314L626 395L587 395L587 431L548 431L548 395L509 395L509 269L470 269L470 386L430 386L430 440L391 440L391 341L352 341L352 296L313 296L313 269L274 269L274 314L235 314L235 278L196 278L196 359L157 359L157 278L117 278L117 233L78 233L78 332L39 332L39 314L0 314Z" fill="#193149"></path><path d="M0 595L39 595L39 676L78 676L78 523L117 523L117 505L157 505L157 559L196 559L196 469L235 469L235 505L274 505L274 496L313 496L313 622L352 622L352 559L391 559L391 721L430 721L430 523L470 523L470 532L509 532L509 613L548 613L548 586L587 586L587 559L626 559L626 469L665 469L665 523L704 523L704 604L743 604L743 622L783 622L783 658L822 658L822 541L861 541L861 523L900 523L900 622L900 566L900 368L861 368L861 431L822 431L822 458L783 458L783 512L743 512L743 341L704 341L704 350L665 350L665 359L626 359L626 449L587 449L587 476L548 476L548 422L509 422L509 341L470 341L470 395L430 395L430 521L391 521L391 386L352 386L352 377L313 377L313 278L274 278L274 395L235 395L235 287L196 287L196 386L157 386L157 332L117 332L117 314L78 314L78 350L39 350L39 359L0 359Z" fill="#193149"></path><path d="M0 703L39 703L39 721L78 721L78 586L117 586L117 613L157 613L157 685L196 685L196 541L235 541L235 631L274 631L274 568L313 568L313 730L352 730L352 676L391 676L391 748L430 748L430 577L470 577L470 577L509 577L509 721L548 721L548 694L587 694L587 676L626 676L626 613L665 613L665 604L704 604L704 703L743 703L743 757L783 757L783 757L822 757L822 595L861 595L861 631L900 631L900 739L900 620L900 521L861 521L861 539L822 539L822 656L783 656L783 620L743 620L743 602L704 602L704 521L665 521L665 467L626 467L626 557L587 557L587 584L548 584L548 611L509 611L509 530L470 530L470 521L430 521L430 719L391 719L391 557L352 557L352 620L313 620L313 494L274 494L274 503L235 503L235 467L196 467L196 557L157 557L157 503L117 503L117 521L78 521L78 674L39 674L39 593L0 593Z" fill="#183d55"></path><path d="M0 730L39 730L39 766L78 766L78 649L117 649L117 649L157 649L157 748L196 748L196 604L235 604L235 676L274 676L274 631L313 631L313 748L352 748L352 739L391 739L391 811L430 811L430 631L470 631L470 613L509 613L509 748L548 748L548 712L587 712L587 721L626 721L626 649L665 649L665 649L704 649L704 739L743 739L743 784L783 784L783 793L822 793L822 658L861 658L861 658L900 658L900 775L900 737L900 629L861 629L861 593L822 593L822 755L783 755L783 755L743 755L743 701L704 701L704 602L665 602L665 611L626 611L626 674L587 674L587 692L548 692L548 719L509 719L509 575L470 575L470 575L430 575L430 746L391 746L391 674L352 674L352 728L313 728L313 566L274 566L274 629L235 629L235 539L196 539L196 683L157 683L157 611L117 611L117 584L78 584L78 719L39 719L39 701L0 701Z" fill="#145c71"></path><path d="M0 811L39 811L39 829L78 829L78 829L117 829L117 784L157 784L157 793L196 793L196 757L235 757L235 829L274 829L274 820L313 820L313 802L352 802L352 838L391 838L391 865L430 865L430 748L470 748L470 802L509 802L509 820L548 820L548 811L587 811L587 838L626 838L626 802L665 802L665 811L704 811L704 856L743 856L743 838L783 838L783 883L822 883L822 820L861 820L861 820L900 820L900 811L900 773L900 656L861 656L861 656L822 656L822 791L783 791L783 782L743 782L743 737L704 737L704 647L665 647L665 647L626 647L626 719L587 719L587 710L548 710L548 746L509 746L509 611L470 611L470 629L430 629L430 809L391 809L391 737L352 737L352 746L313 746L313 629L274 629L274 674L235 674L235 602L196 602L196 746L157 746L157 647L117 647L117 647L78 647L78 764L39 764L39 728L0 728Z" fill="#227d84"></path><path d="M0 856L39 856L39 874L78 874L78 883L117 883L117 874L157 874L157 865L196 865L196 838L235 838L235 874L274 874L274 883L313 883L313 883L352 883L352 856L391 856L391 883L430 883L430 838L470 838L470 883L509 883L509 838L548 838L548 838L587 838L587 865L626 865L626 838L665 838L665 865L704 865L704 874L743 874L743 856L783 856L783 892L822 892L822 874L861 874L861 856L900 856L900 874L900 809L900 818L861 818L861 818L822 818L822 881L783 881L783 836L743 836L743 854L704 854L704 809L665 809L665 800L626 800L626 836L587 836L587 809L548 809L548 818L509 818L509 800L470 800L470 746L430 746L430 863L391 863L391 836L352 836L352 800L313 800L313 818L274 818L274 827L235 827L235 755L196 755L196 791L157 791L157 782L117 782L117 827L78 827L78 827L39 827L39 809L0 809Z" fill="#479d90"></path><path d="M0 901L39 901L39 901L78 901L78 901L117 901L117 901L157 901L157 901L196 901L196 901L235 901L235 901L274 901L274 901L313 901L313 901L352 901L352 901L391 901L391 901L430 901L430 901L470 901L470 901L509 901L509 901L548 901L548 901L587 901L587 901L626 901L626 901L665 901L665 901L704 901L704 901L743 901L743 901L783 901L783 901L822 901L822 901L861 901L861 901L900 901L900 901L900 872L900 854L861 854L861 872L822 872L822 890L783 890L783 854L743 854L743 872L704 872L704 863L665 863L665 836L626 836L626 863L587 863L587 836L548 836L548 836L509 836L509 881L470 881L470 836L430 836L430 881L391 881L391 854L352 854L352 881L313 881L313 881L274 881L274 872L235 872L235 836L196 836L196 863L157 863L157 872L117 872L117 881L78 881L78 872L39 872L39 854L0 854Z" fill="#79bc95"></path></svg>