<svg xmlns="http://www.w3.org/2000/svg" xmlns:xlink="http://www.w3.org/1999/xlink" version="1.0" x="0px" y="0px" viewBox="0 0 39.1 104.75" style="enable-background:new 0 0 39.1 83.8;" xml:space="preserve"><style type="text/css">
	
</style><g><path fill="#b3976e" class="st0" d="M13.1,40.8c0.1,0,0.1-0.1,0.1-0.1c0.1-0.1,0.1-0.2,0.1-0.3c0.2-1.4,0.5-2.8,0.5-4.2c0-0.1,0-0.2,0-0.2   c0.2-0.8,0.3-1.6,0.5-2.3c0.2-0.5,0.2-1,0.3-1.5c0-0.3,0.1-0.7-0.1-1c-0.2-0.4,0-0.9-0.3-1.3c-0.1-0.1,0-0.3,0-0.5   c0.1-0.7,0.2-1.3,0.3-2c0-0.3,0.1-0.6,0.1-0.9c0-0.5,0-1.1,0.1-1.6c0.1-0.5,0.1-1.1,0.1-1.6c0-1,0-1.9,0-2.9c0-0.1-0.1-0.1-0.2-0.1   c0,0-0.1,0-0.1,0.1c0,0.1-0.1,0.1-0.1,0.2c0,0.2-0.1,0.4-0.1,0.6c0,0.7,0.1,1.4,0,2.1c0,0.5-0.1,1-0.1,1.5c-0.1,1-0.2,2-0.4,3   c-0.1,0.5-0.2,1-0.1,1.6c0.1,0.3,0.1,0.8-0.2,1.1c-0.2,0.3-0.2,0.7-0.3,1.1c-0.1,0.5-0.1,0.9-0.2,1.4c-0.1,0.4-0.2,0.4-0.6,0.4   c-0.2,0-0.4,0-0.5,0.2c-0.1,0.1-0.1,0.2-0.3,0.2c-0.1,0-0.1-0.2-0.1-0.3c0-0.7-0.1-1.4,0.1-2.1c0.1-1,0.2-2,0.2-3   c-0.1-1.2,0-2.3,0-3.5c0-0.2,0-0.4-0.1-0.6c0-0.1-0.1-0.2-0.2-0.2c-0.3,0.2-0.7,0.2-1,0.5c-0.3,0.3-0.5,0.6-0.8,0.9   c-0.1,0.1-0.2,0.2-0.3,0.4c-0.4,0.8-1.1,1.3-2,1.5c-0.1,0-0.2,0-0.2,0.1c-1,0.6-2.2,0.8-3.3,1c-0.5,0.1-1.1,0-1.6,0   c-0.4,0-0.7-0.1-1.1-0.1c-0.7,0-1.2-0.4-1.5-1.1c-0.1-0.3,0-0.5,0.1-0.7c0.1-0.1,0.2-0.2,0.3-0.3c0.4-0.3,0.7-0.6,1.1-0.8   c0.3-0.3,0.6-0.5,0.9-0.9c0.2-0.2,0.4-0.4,0.6-0.6c0.8-0.9,1.6-1.7,2.3-2.7c0.1-0.2,0.3-0.3,0.4-0.5C6,20.5,6.3,20.3,6.5,20   c0.6-0.7,1-1.6,1.3-2.5c0.4-1.1,1-2.1,1.6-3.1C9.7,14,10,13.5,10.2,13c0.3-0.5,0.5-1,0.9-1.3c0.3-0.4,0.6-0.8,0.7-1.3   c0-0.2,0.1-0.4,0.2-0.6c-0.1-0.2-0.2-0.3-0.4-0.5c0.3-0.3,0.7-0.6,1-0.9c0.3-0.3,0.5-0.7,0.7-1c0.1-0.1,0.2-0.3,0.2-0.4   c0-0.2,0.1-0.4,0.3-0.5c0.1-0.1,0.3-0.2,0.4-0.3c0.7-1,0.9-0.9,0.4-2.2c-0.2-0.5-0.4-1.1-0.7-1.6c-0.2-0.4-0.1-0.7,0-1.1   c0.1-0.2,0.1-0.3,0.2-0.4c0.1-0.1,0.2-0.2,0.3-0.3c0.2-0.1,0.4-0.2,0.6-0.3c0.6-0.3,1.3-0.3,1.9-0.1c0.5,0.2,1.1,0.4,1.6,0.8   c0.1,0.1,0.3,0.2,0.4,0.3c0.2,0.4,0.6,0.7,0.9,1c0.3,0.3,0.5,0.6,0.9,0.8c0,0,0.1,0,0.1,0.1c0.3,0.2,0.4,0.6,0.8,0.6   c0.3,0,0.6-0.2,1-0.2c0.1,0,0.2-0.1,0.4-0.1c0.2,0.1,0.3,0.2,0.5,0.3c0.2,0.1,0.4,0.1,0.6,0.1c0.1,0.4,0,0.8,0,1.2   c0,0.1-0.1,0.2-0.2,0.3c-0.2,0.2-0.4,0.3-0.5,0.5c-0.1,0.1-0.2,0.3-0.1,0.5c0.2,0.7,0.6,1.4,1,2c0.1,0.2,0.2,0.4,0.3,0.5   c0.6,0.8,1,1.7,1.3,2.6c0.1,0.2,0.2,0.4,0.3,0.7c0.2,0.4,0.6,0.8,0.8,1.2c0.2,0.5,0.4,0.9,0.7,1.3c0.2,0.3,0.3,0.6,0.6,0.8   c0.7,0.7,1.2,1.5,1.8,2.2c0.6,0.6,1.1,1.3,1.7,2c0.7,0.7,1.3,1.5,1.8,2.4c0.2,0.2,0.4,0.5,0.6,0.7c0.2,0.3,0.5,0.6,0.7,0.9   c0.4,0.8,1.1,1.5,1.8,2.1c0.2,0.1,0.3,0.3,0.4,0.5c0.4,0.7,1,1.2,1.3,1.9c0.1,0.2,0.2,0.3,0.4,0.5c0.3,0.4,0.5,0.9,0.5,1.4   c0.1,0.7-0.4,1.5-1,1.6c-0.7,0.2-1.3,0.5-2,0.7c-0.2,0.1-0.4,0.1-0.6,0.1c-0.5,0-1.1,0.1-1.6,0.2c-0.6,0.1-1.2,0.2-1.8,0.3   c-0.1,0-0.2,0-0.2,0c-0.5-0.2-1.1-0.4-1.5-0.9c-0.4-0.5-0.8-1-1.1-1.5c-0.3-0.6-0.7-1.1-1-1.7c-0.1-0.1-0.1-0.2-0.2-0.3   c-0.5-0.5-0.9-1.1-1.3-1.6c-0.4-0.6-0.8-1.1-1.2-1.7c-0.6-0.8-1.1-1.5-1.7-2.3c-0.3-0.3-0.3-0.8-0.7-1c-0.1,0-0.2-0.1-0.2,0   c0,0.1-0.1,0.2-0.1,0.2c-0.1,0.7-0.2,1.5-0.2,2.2c0,0.6,0,1.2-0.1,1.7c0,0.3-0.1,0.6,0,1c0,0.2,0,0.3,0,0.5   c-0.1,0.7-0.2,1.5-0.2,2.2c-0.1,0.5-0.1,1.1-0.1,1.6c0,0.5-0.1,1.1-0.2,1.6c-0.1,0.6-0.2,1.2-0.2,1.8c0,1-0.1,2-0.2,3   c0,0.3-0.1,0.6-0.1,0.9c0,0.2-0.1,0.4-0.1,0.6c0,0.9,0,1.7,0.1,2.6c0.1,1.3,0,2.6,0.1,3.8c0,0.5,0,0.9-0.1,1.4   c-0.1,1.3-0.1,2.6,0,4c0,0.2,0,0.4,0,0.6c-0.1,1.6,0,3.1-0.2,4.7c0,0.3-0.1,0.6,0,0.9c0.1,0.5,0.1,1.1,0.1,1.6   c-0.1,0.4-0.1,0.7,0,1.1c0,1.1,0,2.2-0.2,3.2c-0.1,0.3-0.1,0.7,0,1c0.1,0.5,0.2,1,0.1,1.5c-0.1,0.3,0,0.6,0,0.9   c0.1,0.9,0.3,1.8,0.3,2.7c0,0.9,0,1.7,0,2.6c0,0.2,0,0.5,0,0.7c0.1,0.9,0.1,1.8,0,2.7c-0.1,0.6-0.1,1.2-0.1,1.9   c-0.1,0.9-0.1,1.7-0.3,2.6c0,0,0,0.1,0,0.1c0.1,0.5-0.1,1-0.4,1.4c-0.2,0.2-0.2,0.5-0.3,0.8c-0.1,0.4-0.4,0.6-0.7,0.8   c-0.2,0.1-0.5,0.2-0.7,0.3c-0.4,0.3-0.9,0.4-1.4,0.2c-0.3-0.1-0.7-0.1-1.1,0.1c-0.5,0.1-1,0.2-1.6,0.2c-0.2,0-0.4,0-0.5,0.1   c-0.4,0.3-0.8,0.2-1.2,0.1c-0.2,0-0.3-0.1-0.5-0.2c-0.2-0.1-0.3-0.1-0.5-0.1c-0.3,0-0.7,0-1-0.1c-0.3-0.1-0.5-0.4-0.8-0.5   c-0.2-0.1-0.5-0.2-0.7-0.2c-0.5,0-1-0.1-1.5-0.1c-0.3,0-0.5-0.3-0.5-0.6c0-0.3,0-0.6,0.1-0.9c0-0.2,0.2-0.5,0.4-0.6   c0.1,0,0.2-0.1,0.3-0.2c0.7-0.4,1.1-1,1.2-1.8c0-0.2,0-0.5,0.1-0.7c0.1-0.4,0.3-0.9,0.3-1.3c0-0.4,0-0.8,0-1.2   c0-0.8,0.1-1.6,0.2-2.4c0-0.2,0-0.4,0-0.6c0-0.5,0-1,0-1.5c0.1-1,0.1-2,0.2-3c0-1.3,0.2-2.6,0.2-4c0-0.9,0.1-1.8,0.1-2.7   c0-1.1,0.1-2.1,0.2-3.2c0-0.5,0-1,0.1-1.5c0-0.4,0.3-0.8,0.6-1c0.1,0,0.2,0,0.2-0.1c0.2,0,0.3-0.2,0.3-0.3c0-0.7,0.1-1.4,0-2.1   c-0.1-0.3,0-0.7,0-1c0-0.9,0.1-1.9,0.1-2.8c0-0.3,0-0.6,0-0.9c-0.1-0.8-0.1-1.7-0.2-2.5c0-0.5-0.1-1.1-0.5-1.5   c-0.3-0.4-0.5-1-0.4-1.5c0-0.2,0.1-0.4,0-0.6c-0.1-0.5,0.1-0.9,0.4-1.3c0.1-0.1,0.1-0.2,0.2-0.3c0.1-0.2,0.2-0.5,0.1-0.7   c-0.1-0.3-0.1-0.5,0.1-0.7c0.2-0.3,0.3-0.7,0.3-1c0,0,0-0.1,0-0.1c0.2-0.9,0.2-1.9,0.3-2.8c0-0.2,0-0.5,0.2-0.7   c0-0.1,0.1-0.1,0.2-0.1c0.1,0,0.2,0.1,0.2,0.1c0,0.2,0.1,0.3,0.1,0.5c0,0.4-0.1,0.8-0.1,1.2c-0.2,1.2-0.1,2.3-0.2,3.5   c0,0.3,0,0.7,0.1,1C13,40.6,13,40.7,13.1,40.8z M16.9,17.2C16.9,17.2,16.9,17.3,16.9,17.2c-0.1,0.1-0.1,0.1-0.1,0.2   C16.9,17.3,16.9,17.3,16.9,17.2L16.9,17.2L16.9,17.2z M13.3,42.5C13.3,42.5,13.3,42.5,13.3,42.5c0-0.2,0-0.5,0-0.7   c0-0.1-0.1-0.2-0.2-0.1c0,0-0.1,0-0.1,0.1c-0.2,0.6-0.2,1.1,0,1.7c0,0,0.1,0.1,0.1,0.1c0.1,0,0.2-0.1,0.2-0.1   C13.3,43.1,13.3,42.8,13.3,42.5z M13.2,45.2c0-0.1,0-0.2,0-0.3c0-0.1,0-0.2-0.1-0.1c0,0-0.1,0.1-0.1,0.1c-0.1,0.2,0,0.4,0,0.6   c0,0,0.1,0,0.1,0.1c0,0,0.1-0.1,0.1-0.1C13.2,45.3,13.2,45.2,13.2,45.2z M13.1,46.5C13.1,46.5,13.1,46.4,13.1,46.5   c-0.1-0.1-0.2,0-0.2,0c0,0.1,0,0.2,0.1,0.1C13.1,46.7,13.1,46.6,13.1,46.5z M16.1,19.9L16.1,19.9L16.1,19.9L16.1,19.9z"/><path class="st0" d="M11.4,32.1C11.4,32.1,11.3,32,11.4,32.1c-0.1-0.1,0-0.1,0-0.1C11.4,32,11.4,32,11.4,32.1   C11.4,32,11.4,32,11.4,32.1z"/></g><text x="0" y="98.8" fill="#000000" font-size="5px" font-weight="bold" opacity="0" font-family="'Helvetica Neue', Helvetica, Arial-Unicode, Arial, Sans-serif">Created by Aiden Regalado</text><text x="0" y="103.8" fill="#000000" opacity="0" font-size="5px" font-weight="bold" font-family="'Helvetica Neue', Helvetica, Arial-Unicode, Arial, Sans-serif">from the Noun Project</text></svg>